<svg xmlns="http://www.w3.org/2000/svg" width="14" height="14" viewBox="0 0 14 14">
  <path id="calendar.svg" d="M18.088,187.753h2.419V190H18.088v-2.249Zm2.956,0h2.687V190H21.044v-2.249Zm-2.956-3h2.419v2.5H18.088v-2.5Zm2.956,0h2.687v2.5H21.044v-2.5ZM18.088,182h2.419v2.249H18.088V182Zm6.181,5.75h2.687V190H24.269v-2.249ZM21.044,182h2.687v2.249H21.044V182Zm6.45,5.75h2.419V190H27.494v-2.249Zm-3.225-3h2.687v2.5H24.269v-2.5Zm-3.036-4.075a0.266,0.266,0,0,1-.189.074H20.507a0.265,0.265,0,0,1-.189-0.074,0.231,0.231,0,0,1-.08-0.175v-2.25a0.231,0.231,0,0,1,.08-0.176A0.266,0.266,0,0,1,20.507,178h0.538a0.267,0.267,0,0,1,.189.075,0.232,0.232,0,0,1,.08.176v2.25A0.231,0.231,0,0,1,21.233,180.678Zm6.261,4.075h2.419v2.5H27.494v-2.5ZM24.269,182h2.687v2.249H24.269V182Zm3.225,0h2.419v2.249H27.494V182Zm0.189-1.325a0.266,0.266,0,0,1-.189.074H26.956a0.265,0.265,0,0,1-.189-0.074,0.231,0.231,0,0,1-.08-0.175v-2.25a0.231,0.231,0,0,1,.08-0.176A0.266,0.266,0,0,1,26.956,178h0.538a0.267,0.267,0,0,1,.189.075,0.232,0.232,0,0,1,.08.176v2.25A0.231,0.231,0,0,1,27.683,180.678Zm2.986-1.379a1.072,1.072,0,0,0-.756-0.3H28.838v-0.749a1.164,1.164,0,0,0-.395-0.883A1.343,1.343,0,0,0,27.494,177H26.956a1.343,1.343,0,0,0-.949.367,1.163,1.163,0,0,0-.395.883V179H22.388v-0.749a1.164,1.164,0,0,0-.395-0.883A1.343,1.343,0,0,0,21.044,177H20.507a1.343,1.343,0,0,0-.949.367,1.163,1.163,0,0,0-.395.883V179H18.088a1.072,1.072,0,0,0-.756.3,0.93,0.93,0,0,0-.319.7v10a0.931,0.931,0,0,0,.319.7,1.076,1.076,0,0,0,.756.3H29.913a1.076,1.076,0,0,0,.756-0.3,0.931,0.931,0,0,0,.319-0.7V180A0.931,0.931,0,0,0,30.668,179.3Z" transform="translate(-17 -177)"/>
</svg>
