<svg xmlns="http://www.w3.org/2000/svg" width="14" height="12" viewBox="0 0 14 12">
  <path id="home.svg" d="M28.994,152.852L24,148.425l-4.994,4.427a0.145,0.145,0,0,1,0,.028,0.119,0.119,0,0,0,0,.028v4.482a0.6,0.6,0,0,0,.165.42,0.518,0.518,0,0,0,.391.178h3.335V154.4h2.223v3.586h3.335a0.518,0.518,0,0,0,.391-0.178A0.6,0.6,0,0,0,29,157.39v-4.482a0.138,0.138,0,0,0-.009-0.056h0ZM31,152.044a0.279,0.279,0,0,0-.1-0.2l-1.9-1.7v-3.809a0.3,0.3,0,0,0-.078-0.215,0.261,0.261,0,0,0-.2-0.084H27.057a0.261,0.261,0,0,0-.2.084,0.3,0.3,0,0,0-.078.215v1.821L24.66,146.25a1.018,1.018,0,0,0-1.32,0L17.1,151.843a0.278,0.278,0,0,0-.1.2,0.317,0.317,0,0,0,.061.219l0.538,0.691a0.288,0.288,0,0,0,.182.1,0.307,0.307,0,0,0,.209-0.065L24,147.6l6.01,5.388a0.258,0.258,0,0,0,.182.065h0.026a0.289,0.289,0,0,0,.182-0.1l0.538-.691A0.318,0.318,0,0,0,31,152.044Z" transform="translate(-17 -146)"/>
</svg>
