<svg xmlns="http://www.w3.org/2000/svg" width="14" height="12" viewBox="0 0 14 12">
  <path id="settings.svg" d="M16.987,251.812v1.09H20.2v-1.09H16.987Zm4.091-1.09a0.582,0.582,0,0,0-.411.162,0.5,0.5,0,0,0-.173.383v2.18a0.508,0.508,0,0,0,.173.384,0.586,0.586,0,0,0,.411.162h2.338a0.586,0.586,0,0,0,.411-0.162A0.509,0.509,0,0,0,24,253.447v-2.18a0.5,0.5,0,0,0-.174-0.383,0.582,0.582,0,0,0-.411-0.162H21.078Zm-4.091-3.271v1.09h7.89v-1.09h-7.89Zm0-4.361v1.09h2.046v-1.09H16.987Zm7.306,8.722v1.09h6.721v-1.09H24.292ZM19.909,242a0.585,0.585,0,0,0-.411.161,0.508,0.508,0,0,0-.174.384v2.18a0.508,0.508,0,0,0,.174.384,0.581,0.581,0,0,0,.411.161h2.338a0.581,0.581,0,0,0,.411-0.161,0.509,0.509,0,0,0,.174-0.384v-2.18a0.509,0.509,0,0,0-.174-0.384A0.585,0.585,0,0,0,22.247,242H19.909Zm5.845,4.361a0.582,0.582,0,0,0-.411.162,0.5,0.5,0,0,0-.174.383v2.18a0.508,0.508,0,0,0,.174.384,0.581,0.581,0,0,0,.411.161h2.338a0.581,0.581,0,0,0,.411-0.161,0.509,0.509,0,0,0,.173-0.384v-2.18a0.5,0.5,0,0,0-.173-0.383,0.582,0.582,0,0,0-.411-0.162H25.754Zm3.215,1.09v1.09h2.046v-1.09H28.968Zm-5.845-4.361v1.09h7.89v-1.09h-7.89Z" transform="translate(-17 -242)"/>
</svg>
