<svg xmlns="http://www.w3.org/2000/svg" width="15" height="11.469" viewBox="0 0 15 11.469">
  <path id="login.svg" d="M31.175,330.863a2.8,2.8,0,0,0,2.813-2.813v-5.625a2.8,2.8,0,0,0-2.812-2.812H28.714a0.349,0.349,0,0,0-.352.351v1.172a0.351,0.351,0,0,0,.352.352h2.461a0.95,0.95,0,0,1,.938.937v5.625a0.952,0.952,0,0,1-.937.938H28.714a0.349,0.349,0,0,0-.352.351v1.172a0.351,0.351,0,0,0,.352.352h2.461ZM29.8,324.974a0.707,0.707,0,0,1,0,1l-4.922,4.922a0.7,0.7,0,0,1-1.2-.5v-2.813H19.691a0.7,0.7,0,0,1-.7-0.7v-2.812a0.7,0.7,0,0,1,.7-0.7h3.984V320.55a0.7,0.7,0,0,1,1.2-.5Z" transform="translate(-19 -319.625)"/>
</svg>
