<svg xmlns="http://www.w3.org/2000/svg" width="10" height="10" viewBox="0 0 10 10">
  <path id="edit.svg" d="M339.122,676.227a1.36,1.36,0,0,0-.408-1L337.68,674.2a1.425,1.425,0,0,0-2,0l-6.322,6.323-0.241,2.164a1,1,0,0,0,1.106,1.105l2.164-.24,6.323-6.323A1.356,1.356,0,0,0,339.122,676.227Zm-7.26,6.214-1.563.168,0.169-1.562,4.471-4.472,1.395,1.395Zm6.106-6.214a0.244,0.244,0,0,1-.072.18l-0.745.745-1.394-1.394,0.745-.745a0.258,0.258,0,0,1,.36,0l1.034,1.033A0.248,0.248,0,0,1,337.968,676.227Z" transform="translate(-329.125 -673.781)"/>
</svg>
