<svg xmlns="http://www.w3.org/2000/svg" width="6.875" height="6.875" viewBox="0 0 6.875 6.875">
  <path id="close.svg" d="M148.535,615.437l1.953,1.953a0.586,0.586,0,0,1,.176.43,0.652,0.652,0,0,1-.176.449l-0.429.43a0.655,0.655,0,0,1-.45.176,0.584,0.584,0,0,1-.429-0.176l-1.954-1.953-1.953,1.953a0.584,0.584,0,0,1-.429.176,0.655,0.655,0,0,1-.45-0.176l-0.429-.43a0.652,0.652,0,0,1-.176-0.449,0.586,0.586,0,0,1,.176-0.43l1.953-1.953-1.953-1.953a0.586,0.586,0,0,1-.176-0.43,0.652,0.652,0,0,1,.176-0.449l0.429-.43a0.654,0.654,0,0,1,.45-0.175,0.583,0.583,0,0,1,.429.175l1.953,1.953,1.954-1.953a0.583,0.583,0,0,1,.429-0.175,0.654,0.654,0,0,1,.45.175l0.429,0.43a0.652,0.652,0,0,1,.176.449,0.586,0.586,0,0,1-.176.43Z" transform="translate(-143.781 -612)"/>
</svg>
