<svg xmlns="http://www.w3.org/2000/svg" width="15" height="11.25" viewBox="0 0 15 11.25">
  <path id="letter.svg" d="M32.08,344.605a1.4,1.4,0,0,1,1.406,1.406v8.438a1.4,1.4,0,0,1-1.406,1.406H19.892a1.4,1.4,0,0,1-1.406-1.406v-8.438a1.4,1.4,0,0,1,1.406-1.406H32.08Zm0,1.406H19.892v1.2q1.025,0.819,3.955,3.1l0.264,0.234a7.209,7.209,0,0,0,.938.7,1.788,1.788,0,0,0,.938.38,1.788,1.788,0,0,0,.938-0.38,7.209,7.209,0,0,0,.938-0.7l0.264-.234q2.93-2.256,3.955-3.1v-1.2Zm-12.187,8.438H32.08V349l-3.4,2.695a8.53,8.53,0,0,1-1.2.879,2.957,2.957,0,0,1-1.494.469,3.111,3.111,0,0,1-1.523-.469,11.632,11.632,0,0,1-1.2-.879L19.892,349v5.449Z" transform="translate(-18.5 -344.594)"/>
</svg>
