<svg xmlns="http://www.w3.org/2000/svg" width="14" height="11" viewBox="0 0 14 11">
  <path id="view-list.svg" d="M638.1,688.443a0.243,0.243,0,0,0-.176-0.074h-1.5a0.253,0.253,0,0,0-.25.25v1.5a0.253,0.253,0,0,0,.25.25h1.5a0.253,0.253,0,0,0,.25-0.25v-1.5A0.243,0.243,0,0,0,638.1,688.443Zm0-3a0.243,0.243,0,0,0-.176-0.074h-1.5a0.253,0.253,0,0,0-.25.25v1.5a0.253,0.253,0,0,0,.25.25h1.5a0.253,0.253,0,0,0,.25-0.25v-1.5A0.243,0.243,0,0,0,638.1,685.443Zm0-3a0.243,0.243,0,0,0-.176-0.074h-1.5a0.253,0.253,0,0,0-.25.25v1.5a0.253,0.253,0,0,0,.25.25h1.5a0.253,0.253,0,0,0,.25-0.25v-1.5A0.243,0.243,0,0,0,638.1,682.443Zm12,6a0.243,0.243,0,0,0-.176-0.074h-10.5a0.253,0.253,0,0,0-.25.25v1.5a0.253,0.253,0,0,0,.25.25h10.5a0.253,0.253,0,0,0,.25-0.25v-1.5A0.243,0.243,0,0,0,650.1,688.443Zm-12-9a0.243,0.243,0,0,0-.176-0.074h-1.5a0.253,0.253,0,0,0-.25.25v1.5a0.253,0.253,0,0,0,.25.25h1.5a0.253,0.253,0,0,0,.25-0.25v-1.5A0.243,0.243,0,0,0,638.1,679.443Zm12,6a0.243,0.243,0,0,0-.176-0.074h-10.5a0.253,0.253,0,0,0-.25.25v1.5a0.253,0.253,0,0,0,.25.25h10.5a0.253,0.253,0,0,0,.25-0.25v-1.5A0.243,0.243,0,0,0,650.1,685.443Zm0-3a0.243,0.243,0,0,0-.176-0.074h-10.5a0.253,0.253,0,0,0-.25.25v1.5a0.253,0.253,0,0,0,.25.25h10.5a0.253,0.253,0,0,0,.25-0.25v-1.5A0.243,0.243,0,0,0,650.1,682.443Zm0-3a0.243,0.243,0,0,0-.176-0.074h-10.5a0.253,0.253,0,0,0-.25.25v1.5a0.253,0.253,0,0,0,.25.25h10.5a0.253,0.253,0,0,0,.25-0.25v-1.5A0.243,0.243,0,0,0,650.1,679.443Z" transform="translate(-636.188 -679.375)"/>
</svg>
