<svg id="logo.svg" xmlns="http://www.w3.org/2000/svg" width="277.844" height="44.313" viewBox="0 0 277.844 44.313">
  <defs>
    <style>
      .cls-1 {
        fill: #fff;
      }

      .cls-1, .cls-2 {
        fill-rule: evenodd;
      }

      .cls-2 {
        fill: #26b9a5;
      }
    </style>
  </defs>
  <path id="lines" class="cls-1" d="M29,44v-3.9l0.522-.1H41v4H29ZM13,7.105L14.043,7H36.992v4H13v-3.9ZM31.989,22H0v-3.9L1.391,18h30.6v4Zm2,8v4H10v-3.9l1.043-.1H33.992Z" transform="translate(0 -0.688)"/>
  <path id="quick" class="cls-2" d="M175.959,44.316h-6.565L156.151,30.222V44.316H151.7V1h4.452v28.3L168.31,17.5h6.336l-12.9,12.2ZM139.31,20.941c-5.994,0-9.019,4.469-9.019,9.969s3.6,9.969,9.019,9.969a7.792,7.792,0,0,0,6.793-3.323l3.31,3.151a12.952,12.952,0,0,1-10.1,4.3C131.033,45,125.5,39.16,125.5,30.91c0-8.135,5.594-14.094,13.814-14.094a13.547,13.547,0,0,1,10.275,4.24l-3.539,3.151A8.2,8.2,0,0,0,139.31,20.941ZM118.817,10.284a3.155,3.155,0,0,1-3.254-3.266,3.254,3.254,0,1,1,6.508,0A3.155,3.155,0,0,1,118.817,10.284ZM106.484,39.9H106.37c-1.2,2.635-4.509,5.1-8.9,5.1C90.444,45,87.3,40.535,87.3,34.061V17.5h4.452V33.6c0,4.469,1.941,7.276,6.108,7.276,5.765,0,8.277-4.182,8.277-10.313V17.5h4.452V37.957c0,2.464.229,4.583,0.229,6.359H106.6C106.6,42.884,106.484,41.394,106.484,39.9ZM41.007,23.519a20.415,20.415,0,0,1,20.778-20.8,20.415,20.415,0,0,1,20.778,20.8c0,6.875-3.767,13.979-9.818,16.558v0.115h12.5v4.125H61.785A20.415,20.415,0,0,1,41.007,23.519Zm36.418,0c0-9.052-6.565-16.328-15.641-16.328S46.144,14.467,46.144,23.519c0,9.167,6.736,16.328,15.641,16.328S77.425,32.686,77.425,23.519Zm43.618,20.8h-4.452V17.5h4.452V44.316Z" transform="translate(0 -0.688)"/>
  <path id="pick" class="cls-1" d="M187.508,44h4.814V25.776h8.138c5.731,0,13.3-2.35,13.3-11.233,0-8.482-6.763-11.118-14.213-11.118H187.508V44ZM192.322,7.9h8.138c4.814,0,8.138,2.178,8.138,6.705s-3.324,6.705-8.138,6.705h-8.138V7.9ZM218.227,44h4.47V17.18h-4.47V44ZM217.2,6.692a3.267,3.267,0,1,0,6.533,0A3.267,3.267,0,1,0,217.2,6.692Zm34.156,14.041a13.624,13.624,0,0,0-10.315-4.241c-8.253,0-13.869,5.96-13.869,14.1,0,8.253,5.559,14.1,13.869,14.1a13.025,13.025,0,0,0,10.143-4.3l-3.324-3.152a7.83,7.83,0,0,1-6.819,3.324c-5.445,0-9.055-4.47-9.055-9.972s3.037-9.972,9.055-9.972a8.238,8.238,0,0,1,6.762,3.267ZM253.473,44h4.47V29.9l13.3,14.1h6.59l-14.27-14.614L276.511,17.18H270.15L257.943,28.985V0.674h-4.47V44Z" transform="translate(0 -0.688)"/>
</svg>
