<svg xmlns="http://www.w3.org/2000/svg" width="7.875" height="9.937" viewBox="0 0 7.875 9.937">
  <path id="phone.svg" d="M481.242,273.5a1.987,1.987,0,0,1-.421.238,0.688,0.688,0,0,1-.251.044,2.192,2.192,0,0,1-.547-0.1l-0.034-.011a1.839,1.839,0,0,1-1-.709,7.111,7.111,0,0,1-.463-0.9,4.909,4.909,0,0,1-.379-1.206,8.8,8.8,0,0,1,0-2.723,4.9,4.9,0,0,1,.379-1.2c0.011-.026.028-0.062,0.05-0.106,0.116-.25.2-0.425,0.254-0.528a3.284,3.284,0,0,1,.257-0.39,1.374,1.374,0,0,1,.4-0.369,2.455,2.455,0,0,1,.539-0.226,2.192,2.192,0,0,1,.547-0.1,0.688,0.688,0,0,1,.251.044,1.987,1.987,0,0,1,.421.238,0.454,0.454,0,0,1,.243.293,1.8,1.8,0,0,1-.073.323q-0.072.263-.173,0.6c-0.067.224-.1,0.352-0.111,0.385,0,0.015-.013.065-0.028,0.148a1.428,1.428,0,0,1-.048.2,0.271,0.271,0,0,1-.075.12,0.415,0.415,0,0,1-.285.078,3.794,3.794,0,0,1-.39-0.03,3.6,3.6,0,0,0-.4-0.031,0.419,0.419,0,0,0-.263.061,0.255,0.255,0,0,0-.061.087,0.592,0.592,0,0,0-.042.111c-0.009.036-.021,0.08-0.036,0.134s-0.025.089-.028,0.1a4.995,4.995,0,0,0,0,2.846c0,0.014.013,0.049,0.028,0.1s0.027,0.1.036,0.134a0.592,0.592,0,0,0,.042.111,0.255,0.255,0,0,0,.061.087,0.419,0.419,0,0,0,.263.061,3.806,3.806,0,0,0,.4-0.03,3.586,3.586,0,0,1,.39-0.031,0.415,0.415,0,0,1,.285.078,0.271,0.271,0,0,1,.075.12,1.428,1.428,0,0,1,.048.2c0.015,0.084.024,0.133,0.028,0.148,0.007,0.033.044,0.162,0.111,0.385s0.125,0.422.173,0.6a1.82,1.82,0,0,1,.073.323A0.454,0.454,0,0,1,481.242,273.5ZM482.623,268a1.427,1.427,0,0,0,0-2.02,0.355,0.355,0,1,0-.5.5,0.716,0.716,0,0,1,.206.508,0.686,0.686,0,0,1-.206.5,0.36,0.36,0,0,0,.251.614,0.372,0.372,0,0,0,.251-0.106h0Zm1.01,1.01a2.857,2.857,0,0,0,0-4.041,0.355,0.355,0,1,0-.5.5,2.155,2.155,0,0,1,0,3.035,0.351,0.351,0,0,0,0,.5,0.35,0.35,0,0,0,.5,0h0Zm1.01,1.01a4.276,4.276,0,0,0,0-6.061,0.355,0.355,0,1,0-.5.5,3.594,3.594,0,0,1,.773,1.16,3.586,3.586,0,0,1,0,2.735,3.594,3.594,0,0,1-.773,1.16,0.351,0.351,0,0,0,0,.5,0.35,0.35,0,0,0,.5,0h0Z" transform="translate(-478.031 -263.844)"/>
</svg>
