<svg xmlns="http://www.w3.org/2000/svg" width="13.938" height="13.938" viewBox="0 0 13.938 13.938">
  <path id="search.svg" d="M5.893,9.857a3.611,3.611,0,0,1-2.649-1.1,3.611,3.611,0,0,1-1.1-2.649,3.612,3.612,0,0,1,1.1-2.649,3.612,3.612,0,0,1,2.649-1.1,3.612,3.612,0,0,1,2.649,1.1,3.612,3.612,0,0,1,1.1,2.649,3.612,3.612,0,0,1-1.1,2.649A3.612,3.612,0,0,1,5.893,9.857Zm7.726,2.461L10.748,9.447a5.733,5.733,0,0,0,1.038-3.34,5.789,5.789,0,0,0-.465-2.289A5.77,5.77,0,0,0,8.182.679,5.873,5.873,0,0,0,3.6.679,5.771,5.771,0,0,0,.465,3.818a5.873,5.873,0,0,0,0,4.579A5.77,5.77,0,0,0,3.6,11.535,5.79,5.79,0,0,0,5.893,12a5.732,5.732,0,0,0,3.34-1.038L12.1,13.825a1,1,0,0,0,.753.318,1.071,1.071,0,0,0,.762-1.825h0Z" transform="translate(0 -0.219)"/>
</svg>
