<svg xmlns="http://www.w3.org/2000/svg" width="13" height="11" viewBox="0 0 13 11">
  <path id="view-table.svg" d="M597.606,689.3a0.241,0.241,0,0,1-.179.07h-2.5a0.24,0.24,0,0,1-.25-0.25v-1.5a0.24,0.24,0,0,1,.25-0.25h2.5a0.241,0.241,0,0,1,.179.07,0.244,0.244,0,0,1,.071.18v1.5A0.244,0.244,0,0,1,597.606,689.3Zm0-3a0.241,0.241,0,0,1-.179.07h-2.5a0.24,0.24,0,0,1-.25-0.25v-1.5a0.24,0.24,0,0,1,.25-0.25h2.5a0.241,0.241,0,0,1,.179.07,0.244,0.244,0,0,1,.071.18v1.5A0.244,0.244,0,0,1,597.606,686.3Zm4,3a0.241,0.241,0,0,1-.179.07h-2.5a0.24,0.24,0,0,1-.25-0.25v-1.5a0.24,0.24,0,0,1,.25-0.25h2.5a0.241,0.241,0,0,1,.179.07,0.244,0.244,0,0,1,.071.18v1.5A0.244,0.244,0,0,1,601.606,689.3Zm-4-6a0.241,0.241,0,0,1-.179.07h-2.5a0.24,0.24,0,0,1-.25-0.25v-1.5a0.24,0.24,0,0,1,.25-0.25h2.5a0.241,0.241,0,0,1,.179.07,0.244,0.244,0,0,1,.071.18v1.5A0.244,0.244,0,0,1,597.606,683.3Zm4,3a0.241,0.241,0,0,1-.179.07h-2.5a0.24,0.24,0,0,1-.25-0.25v-1.5a0.24,0.24,0,0,1,.25-0.25h2.5a0.241,0.241,0,0,1,.179.07,0.244,0.244,0,0,1,.071.18v1.5A0.244,0.244,0,0,1,601.606,686.3Zm4,3a0.241,0.241,0,0,1-.179.07h-2.5a0.24,0.24,0,0,1-.25-0.25v-1.5a0.24,0.24,0,0,1,.25-0.25h2.5a0.241,0.241,0,0,1,.179.07,0.244,0.244,0,0,1,.071.18v1.5A0.244,0.244,0,0,1,605.606,689.3Zm-4-6a0.241,0.241,0,0,1-.179.07h-2.5a0.24,0.24,0,0,1-.25-0.25v-1.5a0.24,0.24,0,0,1,.25-0.25h2.5a0.241,0.241,0,0,1,.179.07,0.244,0.244,0,0,1,.071.18v1.5A0.244,0.244,0,0,1,601.606,683.3Zm4,3a0.241,0.241,0,0,1-.179.07h-2.5a0.24,0.24,0,0,1-.25-0.25v-1.5a0.24,0.24,0,0,1,.25-0.25h2.5a0.241,0.241,0,0,1,.179.07,0.244,0.244,0,0,1,.071.18v1.5A0.244,0.244,0,0,1,605.606,686.3Zm0-3a0.241,0.241,0,0,1-.179.07h-2.5a0.24,0.24,0,0,1-.25-0.25v-1.5a0.24,0.24,0,0,1,.25-0.25h2.5a0.241,0.241,0,0,1,.179.07,0.244,0.244,0,0,1,.071.18v1.5A0.244,0.244,0,0,1,605.606,683.3Zm0.7-3.563a1.2,1.2,0,0,0-.882-0.367h-10.5a1.253,1.253,0,0,0-1.25,1.25v8.5a1.253,1.253,0,0,0,1.25,1.25h10.5a1.255,1.255,0,0,0,1.25-1.25v-8.5A1.2,1.2,0,0,0,606.309,679.736Z" transform="translate(-593.688 -679.375)"/>
</svg>
