<svg xmlns="http://www.w3.org/2000/svg" width="14" height="10" viewBox="0 0 14 10">
  <path id="menu.svg" d="M30.84,107.157a0.613,0.613,0,0,0-.411-0.149H17.571a0.612,0.612,0,0,0-.411.149,0.449,0.449,0,0,0-.174.352v1a0.449,0.449,0,0,0,.174.352,0.612,0.612,0,0,0,.411.149H30.429a0.613,0.613,0,0,0,.411-0.149,0.45,0.45,0,0,0,.174-0.352v-1A0.45,0.45,0,0,0,30.84,107.157Zm0-4.008A0.613,0.613,0,0,0,30.429,103H17.571a0.612,0.612,0,0,0-.411.149,0.449,0.449,0,0,0-.174.352v1a0.449,0.449,0,0,0,.174.352,0.612,0.612,0,0,0,.411.149H30.429a0.613,0.613,0,0,0,.411-0.149,0.45,0.45,0,0,0,.174-0.352v-1A0.45,0.45,0,0,0,30.84,103.149Zm0-4.008a0.612,0.612,0,0,0-.411-0.149H17.571a0.611,0.611,0,0,0-.411.149,0.45,0.45,0,0,0-.174.352v1a0.449,0.449,0,0,0,.174.352,0.607,0.607,0,0,0,.411.149H30.429a0.608,0.608,0,0,0,.411-0.149,0.45,0.45,0,0,0,.174-0.352v-1A0.451,0.451,0,0,0,30.84,99.141Z" transform="translate(-17 -99)"/>
</svg>
